<?xml version="1.0" standalone="no"?>
<!DOCTYPE svg PUBLIC "-//W3C//DTDSVG20010904//EN"  "http://www.w3.org/TR/2001/REC-SVG-20010904/DTD/svg10.dtd">
<svg version="1.0" xmlns="http://www.w3.org/2000/svg" width="712.000000pt" height="176.000000pt" viewBox="0 0 712.000000 176.000000" preserveAspectRatio="xMidYMid meet">

    <g transform="translate(0.000000,176.000000) scale(0.100000,-0.100000)" fill="#ffffff" stroke="none">
        <path d="M40 880 l0 -840 280 0 280 0 0 840 0 840 -280 0 -280 0 0 -840z"/>
        <path d="M880 880 l0 -840 660 0 660 0 0 220 0 220 -380 0 -380 0 0 620 0 620
            -280 0 -280 0 0 -840z"/>
        <path d="M2333 1178 c3 -521 4 -546 26 -628 71 -275 253 -451 538 -522 74 -18
            115 -22 258 -21 150 0 181 3 267 26 273 72 445 241 520 512 21 77 22 98 26
            628 l3 547 -280 0 -280 0 -3 -527 c-3 -475 -5 -532 -21 -572 -44 -112 -109
            -156 -233 -156 -72 0 -85 3 -130 30 -31 20 -58 47 -73 75 -48 86 -51 120 -51
            653 l0 497 -286 0 -285 0 4 -542z"/>
        <path d="M4230 880 l0 -840 255 0 255 0 2 368 3 367 180 -292 180 -292 126 -1
            126 0 179 302 179 302 6 -314 c4 -173 7 -343 8 -377 l1 -63 255 0 255 0 0 840
            0 840 -234 0 -234 0 -263 -444 c-145 -245 -266 -445 -269 -445 -3 0 -126 200
            -275 444 l-270 444 -232 1 -233 0 0 -840z"/>
        <path d="M6520 880 l0 -840 280 0 280 0 0 840 0 840 -280 0 -280 0 0 -840z"/>
    </g>
</svg>
